# xmcd
#
# Track frame offsets:
#	150
#	15960
#	30685
#	47485
#	60625
#	75893
#	94205
#	107298
#	118240
#	131383
#	150980
#	165588
#	180240
#	194123
#	210640
#
# Disc length: 3031 seconds
#
# Revision: 0
# Processed by: cddbd v1.5PL3 Copyright (c) Steve Scherf et al.
# Submitted via: dBpowerAMP V4.0
#
DISCID=ad0bd50f
DTITLE=Wagon trail - From town to town
DYEAR=1900
DGENRE=Country
TTITLE0=God blessed texas
TTITLE1=Down at the twist and shout
TTITLE2=From town to town
TTITLE3=Tipperary on my mind
TTITLE4=Turn it on, turn it up, turn me loose
TTITLE5=For reasons i've forgotten
TTITLE6=Love's got a hold on you
TTITLE7=Silver threads and golden needles
TTITLE8=Wagon trail
TTITLE9=That'll be me
TTITLE10=The grand tour
TTITLE11=Let's go spend your money, honey
TTITLE12=Guitars and cadillacs
TTITLE13=Old flames
TTITLE14=The dance
EXTD=
EXTT0=
EXTT1=
EXTT2=
EXTT3=
EXTT4=
EXTT5=
EXTT6=
EXTT7=
EXTT8=
EXTT9=
EXTT10=
EXTT11=
EXTT12=
EXTT13=
EXTT14=
PLAYORDER=
